<svg xmlns="http://www.w3.org/2000/svg" width="100%" viewBox="0 0 593 322" fill="none" class="cta_home_svgs"><g clip-path="url(#clip0_7843_962)" stroke-width="1px" fill-opacity="1" stroke-opacity="1"><path d="M134.335 19.6836C126.993 24.6146 118.88 30.7208 112.341 37.5316C100.738 49.6155 89.2314 63.2385 79.3417 76.8692C72.6607 86.0774 63.9928 100.05 59.2569 110.328C52.9547 124.007 49.2218 133.59 45.7628 148.618C40.8901 169.79 41.562 191.518 46.5111 212.002C53.7925 242.138 77.0965 267.353 100.384 287.821C118.602 303.832 143.095 314.306 164.615 322L166.839 316.124C145.515 308.505 122.915 298.327 105.455 282.964C82.9952 263.199 62.2501 239.096 53.3015 210.375C47.8511 192.891 46.5859 173.708 49.4456 155.132C51.9509 138.859 58.2489 122.55 64.3841 107.722C69.428 95.5321 75.3089 86.0364 82.4823 76.035C91.5776 63.3534 101.572 50.9863 112.196 39.694C119.074 32.3845 128.272 25.7854 135.659 20.8239L134.335 19.6836Z" fill="currentColor" stroke-width="1px" fill-opacity="1" stroke-opacity="1"></path><path d="M125.007 304.036C125.007 304.036 109.892 299.257 97.8963 300.665C78.8523 302.9 77.0967 314.722 77.0967 314.722C77.0967 314.722 84.7368 319.465 101.124 317.663C120.321 315.551 125.007 304.036 125.007 304.036L125.007 304.036Z" fill="currentColor" stroke-width="1px" fill-opacity="1" stroke-opacity="1"></path><path d="M99.2672 286.38C99.2672 286.38 86.5285 280.337 74.451 280.427C53.5421 280.582 52.2886 291.687 52.2886 291.687C52.2886 291.687 59.8568 297.148 76.6026 296.923C95.9138 296.664 99.2672 286.38 99.2672 286.38Z" fill="currentColor" stroke-width="1px" fill-opacity="1" stroke-opacity="1"></path><path d="M80.2244 267.814C80.2244 267.814 68.1119 257.199 56.3963 254.263C36.1139 249.181 29.396 260.983 29.396 260.983C29.396 260.983 36.9353 270.028 53.2044 274C71.9657 278.581 80.2244 267.814 80.2244 267.814Z" fill="currentColor" stroke-width="1px" fill-opacity="1" stroke-opacity="1"></path><path d="M58.7202 239.212C58.7202 239.212 48.3618 228.294 34.1821 223.937C15.677 218.251 6.97894 229.414 6.7251 229.693C6.7251 229.693 14.3078 239.237 30.1278 243.421C51.3476 249.033 58.7202 239.212 58.7202 239.212Z" fill="currentColor" stroke-width="1px" fill-opacity="1" stroke-opacity="1"></path><path d="M48.4787 216.454C48.4787 216.454 38.8316 201.763 24.4426 194.829C10.4649 188.089 0.253439 193.829 0 194.054C0 194.054 7.18023 207.176 20.3904 213.463C38.3388 222.007 48.4807 216.452 48.4807 216.452L48.4787 216.454Z" fill="currentColor" stroke-width="1px" fill-opacity="1" stroke-opacity="1"></path><path d="M45.3699 196.478C40.2208 191.634 39.8372 178.469 32.4775 167.785C22.2102 152.88 5.27395 153.96 5.02051 154.101C5.02051 154.101 6.83362 172.67 19.673 183.894C33.3181 195.822 45.3695 196.48 45.3695 196.48L45.3699 196.478Z" fill="currentColor" stroke-width="1px" fill-opacity="1" stroke-opacity="1"></path><path d="M43.9471 165.179C43.9471 165.179 44.4469 149.039 40.1907 136.783C34.2532 119.685 18.0447 116.328 17.7632 116.396C17.7632 116.396 15.1346 134.678 24.5301 148.91C34.5154 164.034 43.9473 165.179 43.9473 165.179L43.9471 165.179Z" fill="currentColor" stroke-width="1px" fill-opacity="1" stroke-opacity="1"></path><path d="M50.8128 134.93C50.8128 134.93 54.0458 121.381 52.408 108.51C49.9394 89.1117 34.844 85.0052 34.5556 85.0333C34.5556 85.0333 29.3808 103 36.7425 118.382C44.5662 134.73 50.8128 134.93 50.8128 134.93Z" fill="currentColor" stroke-width="1px" fill-opacity="1" stroke-opacity="1"></path><path d="M64.1103 102.455C64.1103 102.455 69.3675 90.1984 68.6939 77.2416C67.7589 59.2595 55.5741 51.6628 55.2849 51.6523C55.2849 51.6523 43.5364 62.2454 50.284 85.0472C54.3772 98.8787 64.1107 102.455 64.1107 102.455L64.1103 102.455Z" fill="currentColor" stroke-width="1px" fill-opacity="1" stroke-opacity="1"></path><path d="M81.0269 75.7502C81.0269 75.7502 88.8393 63.7161 91.0005 50.9228C93.0295 38.9124 88.1568 25.8275 87.069 24.625C87.069 24.625 74.3569 30.2119 74.8329 51.6534C75.153 66.0745 81.0269 75.7502 81.0269 75.7502Z" fill="currentColor" stroke-width="1px" fill-opacity="1" stroke-opacity="1"></path><path d="M101.814 49.9849C101.814 49.9849 111.129 40.0654 113.555 26.5022C115.563 15.2626 113.539 3.0485 111.422 0C111.422 0 99.2725 7.54895 98.3896 26.64C97.7234 41.0491 100.85 47.9072 101.814 49.9865L101.814 49.9849Z" fill="currentColor" stroke-width="1px" fill-opacity="1" stroke-opacity="1"></path><path d="M116.892 34.183C116.892 34.183 134.644 34.8244 143.467 29.7018C153.343 23.9679 163.035 11.5221 163.799 7.8888C163.799 7.8888 148.251 1.07085 133.754 13.5247C122.812 22.924 117.743 32.0555 116.892 34.183Z" fill="currentColor" stroke-width="1px" fill-opacity="1" stroke-opacity="1"></path><path d="M97.33 55.6039C97.33 55.6039 105.821 45.6623 120.412 43.0938C131.659 41.1142 140.305 42.942 145.857 46.1766C145.857 46.1766 137.293 57.1487 120.878 58.6613C106.514 59.9847 99.4398 56.4983 97.3296 55.6039L97.33 55.6039Z" fill="currentColor" stroke-width="1px" fill-opacity="1" stroke-opacity="1"></path><path d="M79.7831 78.5225C79.7831 78.5225 87.8683 68.9866 102.46 66.4185C113.707 64.4389 119.107 66.4695 124.658 69.7041C124.658 69.7041 117.819 80.1694 101.404 81.6816C87.0405 83.005 81.893 79.4171 79.7827 78.5227L79.7831 78.5225Z" fill="currentColor" stroke-width="1px" fill-opacity="1" stroke-opacity="1"></path><path d="M62.749 108.424C62.749 108.424 70.302 96.6708 83.9592 90.9273C97.9537 85.0415 105.142 87.8519 111.161 90.0988C109.241 92.9781 101.386 104.98 88.65 108.583C74.7703 112.509 64.9802 108.948 62.749 108.424Z" fill="currentColor" stroke-width="1px" fill-opacity="1" stroke-opacity="1"></path><path d="M52.6396 134.98C52.6396 134.98 59.3327 122.717 72.5436 116.011C86.0815 109.139 93.4518 111.428 99.6162 113.239C97.9076 116.248 90.931 128.781 78.4856 133.286C64.922 138.195 54.9025 135.343 52.6396 134.98Z" fill="currentColor" stroke-width="1px" fill-opacity="1" stroke-opacity="1"></path><path d="M47.3296 166.547C53.1217 159.121 56.2706 151.137 65.1824 143.192C76.1618 133.402 85.5828 136.523 91.9766 137.155C88.8291 143.067 84.1031 152.419 74.3363 159.465C62.6379 167.904 49.6206 166.483 47.3296 166.547V166.547Z" fill="currentColor" stroke-width="1px" fill-opacity="1" stroke-opacity="1"></path><path d="M48.0503 195.624C52.9753 187.597 55.3125 181.339 63.2791 172.446C73.0942 161.49 82.3995 163.435 88.8238 163.348C86.3576 169.575 82.2007 178.89 73.2833 186.984C62.6027 196.679 50.3192 195.304 48.0503 195.624Z" fill="currentColor" stroke-width="1px" fill-opacity="1" stroke-opacity="1"></path><path d="M54.3818 218.807C61.7914 207.368 60.8564 204.779 68.1085 195.294C75.8972 185.108 85.7348 185.388 92.1314 184.785C90.1725 191.19 87.2454 199.854 78.9425 208.577C70.0882 217.881 60.8785 216.683 54.3822 218.807H54.3818Z" fill="currentColor" stroke-width="1px" fill-opacity="1" stroke-opacity="1"></path><path d="M66.5566 241.531C71.2278 231.411 70.4212 225.091 74.7044 217.917C81.71 206.184 88.5777 205.677 94.9743 205.075C89.8722 219.694 91.0535 219.761 85.4368 228.665C79.9716 237.329 72.5456 238.495 66.5566 241.532V241.531Z" fill="currentColor" stroke-width="1px" fill-opacity="1" stroke-opacity="1"></path><path d="M81.2334 260.644C83.8955 249.82 81.1925 246.508 84.0341 238.65C88.6815 225.799 95.328 223.996 101.493 222.189C100.784 230.816 101.855 236.29 97.0193 245.64C93.6047 252.243 86.5359 256.524 81.2334 260.644Z" fill="currentColor" stroke-width="1px" fill-opacity="1" stroke-opacity="1"></path><path d="M110.814 239.391C110.814 239.391 116.153 249.699 114.38 261.645C111.867 278.572 102.821 281.108 102.821 281.108C102.821 281.108 97.6694 273.415 98.1932 257.804C98.7524 241.129 110.814 239.391 110.814 239.391L110.814 239.391Z" fill="currentColor" stroke-width="1px" fill-opacity="1" stroke-opacity="1"></path><path d="M130.087 256.632C130.087 256.632 135.43 267.068 134.261 279.089C132.763 294.495 124.326 298.35 124.326 298.35C124.326 298.35 119.011 289.75 118.785 276.77C118.439 256.95 130.087 256.632 130.087 256.632L130.087 256.632Z" fill="currentColor" stroke-width="1px" fill-opacity="1" stroke-opacity="1"></path><path d="M458.238 19.6836C465.579 24.6146 473.693 30.7208 480.232 37.5316C491.834 49.6155 503.341 63.2385 513.231 76.8692C519.912 86.0774 528.58 100.05 533.315 110.328C539.618 124.007 543.351 133.59 546.81 148.618C551.682 169.79 551.011 191.518 546.061 212.002C538.78 242.138 515.476 267.353 492.188 287.821C473.97 303.832 449.477 314.306 427.957 322L425.748 316.128C447.075 308.504 469.676 298.327 487.136 282.963C509.595 263.201 530.337 239.099 539.289 210.374C544.738 192.89 546.003 173.705 543.144 155.131C540.639 138.858 534.341 122.549 528.206 107.721C523.162 95.5313 517.281 86.0356 510.107 76.0342C501.012 63.3526 491.018 50.9855 480.393 39.6932C473.516 32.3837 464.318 25.7846 456.931 20.8231L458.238 19.6836Z" fill="currentColor" stroke-width="1px" fill-opacity="1" stroke-opacity="1"></path><path d="M467.598 304.036C467.598 304.036 482.714 299.257 494.709 300.665C513.753 302.9 515.509 314.722 515.509 314.722C515.509 314.722 507.869 319.465 491.482 317.663C472.285 315.551 467.598 304.036 467.598 304.036Z" fill="currentColor" stroke-width="1px" fill-opacity="1" stroke-opacity="1"></path><path d="M493.302 286.38C493.302 286.38 506.041 280.337 518.118 280.427C539.027 280.582 540.281 291.687 540.281 291.687C540.281 291.687 532.713 297.148 515.967 296.923C496.656 296.664 493.302 286.38 493.302 286.38Z" fill="currentColor" stroke-width="1px" fill-opacity="1" stroke-opacity="1"></path><path d="M512.381 267.814C512.381 267.814 524.494 257.199 536.209 254.263C556.492 249.181 563.21 260.983 563.21 260.983C563.21 260.983 555.67 270.028 539.401 274C520.64 278.581 512.381 267.814 512.381 267.814Z" fill="currentColor" stroke-width="1px" fill-opacity="1" stroke-opacity="1"></path><path d="M533.869 239.212C533.869 239.212 544.228 228.294 558.407 223.937C576.912 218.251 585.61 229.414 585.864 229.693C585.864 229.693 578.282 239.237 562.462 243.421C541.242 249.033 533.87 239.212 533.87 239.212H533.869Z" fill="currentColor" stroke-width="1px" fill-opacity="1" stroke-opacity="1"></path><path d="M544.11 216.452C544.11 216.452 553.757 201.762 568.146 194.828C582.126 188.09 592.337 193.828 592.591 194.054C592.591 194.054 585.411 207.176 572.2 213.464C554.252 222.007 544.11 216.452 544.11 216.452Z" fill="currentColor" stroke-width="1px" fill-opacity="1" stroke-opacity="1"></path><path d="M547.204 196.479C552.351 191.636 552.736 178.47 560.096 167.785C570.363 152.88 587.299 153.961 587.552 154.1C587.552 154.1 585.739 172.67 572.9 183.894C559.254 195.821 547.204 196.479 547.204 196.479Z" fill="currentColor" stroke-width="1px" fill-opacity="1" stroke-opacity="1"></path><path d="M548.65 165.179C548.65 165.179 548.15 149.039 552.406 136.783C558.344 119.685 574.552 116.328 574.834 116.396C574.834 116.396 577.462 134.678 568.067 148.91C558.082 164.034 548.65 165.179 548.65 165.179L548.65 165.179Z" fill="currentColor" stroke-width="1px" fill-opacity="1" stroke-opacity="1"></path><path d="M541.78 134.93C541.78 134.93 538.547 121.381 540.185 108.51C542.654 89.1117 557.749 85.0052 558.037 85.0333C558.037 85.0333 563.212 103 555.851 118.382C548.027 134.73 541.78 134.93 541.78 134.93Z" fill="currentColor" stroke-width="1px" fill-opacity="1" stroke-opacity="1"></path><path d="M528.487 102.455C528.487 102.455 523.23 90.1984 523.903 77.2416C524.838 59.2595 537.023 51.6628 537.312 51.6523C537.312 51.6523 549.061 62.2454 542.313 85.0472C538.22 98.8787 528.487 102.455 528.487 102.455L528.487 102.455Z" fill="currentColor" stroke-width="1px" fill-opacity="1" stroke-opacity="1"></path><path d="M511.537 75.7502C511.537 75.7502 503.725 63.7161 501.564 50.9228C499.535 38.9124 504.407 25.8275 505.495 24.625C505.495 24.625 518.207 30.2119 517.731 51.6534C517.411 66.0745 511.537 75.7502 511.537 75.7502Z" fill="currentColor" stroke-width="1px" fill-opacity="1" stroke-opacity="1"></path><path d="M490.771 49.9869C490.771 49.9869 481.456 40.0675 479.03 26.5042C477.019 15.2626 479.043 3.0485 481.162 0C481.162 0 493.312 7.54894 494.195 26.64C494.861 41.0491 491.735 47.9072 490.771 49.9865L490.771 49.9869Z" fill="currentColor" stroke-width="1px" fill-opacity="1" stroke-opacity="1"></path><path d="M475.711 34.183C475.711 34.183 457.959 34.8244 449.136 29.7018C439.26 23.9679 429.568 11.5221 428.803 7.8888C428.803 7.8888 444.352 1.07085 458.849 13.5247C469.79 22.924 474.859 32.0555 475.711 34.183Z" fill="currentColor" stroke-width="1px" fill-opacity="1" stroke-opacity="1"></path><path d="M495.271 55.6039C495.271 55.6039 486.78 45.6623 472.189 43.0938C460.942 41.1142 452.296 42.942 446.745 46.1766C446.745 46.1766 455.309 57.1487 471.723 58.6613C486.087 59.9847 493.161 56.4984 495.271 55.6039Z" fill="currentColor" stroke-width="1px" fill-opacity="1" stroke-opacity="1"></path><path d="M512.782 78.5225C512.782 78.5225 504.697 68.9866 490.106 66.4185C478.859 64.4389 473.458 66.4695 467.907 69.7041C467.907 69.7041 474.747 80.1694 491.161 81.6816C505.525 83.005 510.673 79.4171 512.783 78.5227L512.782 78.5225Z" fill="currentColor" stroke-width="1px" fill-opacity="1" stroke-opacity="1"></path><path d="M529.851 108.424C529.851 108.424 522.298 96.6708 508.64 90.9273C494.646 85.0415 487.458 87.8519 481.439 90.0988C483.358 92.9781 491.214 104.98 503.95 108.583C517.829 112.509 527.619 108.948 529.851 108.424Z" fill="currentColor" stroke-width="1px" fill-opacity="1" stroke-opacity="1"></path><path d="M539.934 134.98C539.934 134.98 533.241 122.717 520.03 116.011C506.492 109.139 499.122 111.428 492.957 113.239C494.666 116.248 501.642 128.781 514.088 133.286C527.651 138.195 537.671 135.343 539.934 134.98Z" fill="currentColor" stroke-width="1px" fill-opacity="1" stroke-opacity="1"></path><path d="M545.235 166.547C539.443 159.121 536.294 151.137 527.382 143.192C516.403 133.402 506.982 136.523 500.588 137.155C503.735 143.067 508.461 152.419 518.228 159.465C529.927 167.904 542.944 166.483 545.235 166.547V166.547Z" fill="currentColor" stroke-width="1px" fill-opacity="1" stroke-opacity="1"></path><path d="M544.552 195.624C539.627 187.597 537.29 181.339 529.324 172.446C519.508 161.49 510.203 163.435 503.779 163.348C506.245 169.575 510.402 178.89 519.319 186.984C530 196.679 542.283 195.304 544.552 195.624Z" fill="currentColor" stroke-width="1px" fill-opacity="1" stroke-opacity="1"></path><path d="M538.206 218.807C530.796 207.368 531.731 204.779 524.479 195.294C516.69 185.108 506.853 185.388 500.456 184.785C502.415 191.19 505.343 199.854 513.645 208.577C522.499 217.881 531.709 216.683 538.206 218.807Z" fill="currentColor" stroke-width="1px" fill-opacity="1" stroke-opacity="1"></path><path d="M526.036 241.531C521.365 231.411 522.172 225.091 517.889 217.917C510.883 206.184 504.015 205.677 497.619 205.075C502.721 219.694 501.54 219.761 507.156 228.665C512.621 237.329 520.047 238.495 526.036 241.532V241.531Z" fill="currentColor" stroke-width="1px" fill-opacity="1" stroke-opacity="1"></path><path d="M511.337 260.644C508.675 249.82 511.378 246.508 508.536 238.65C503.889 225.799 497.242 223.996 491.077 222.189C491.786 230.816 490.716 236.29 495.551 245.64C498.966 252.243 506.034 256.524 511.337 260.644Z" fill="currentColor" stroke-width="1px" fill-opacity="1" stroke-opacity="1"></path><path d="M481.776 239.391C481.776 239.391 476.437 249.699 478.21 261.645C480.723 278.572 489.768 281.108 489.768 281.108C489.768 281.108 494.92 273.415 494.396 257.804C493.837 241.129 481.775 239.391 481.775 239.391L481.776 239.391Z" fill="currentColor" stroke-width="1px" fill-opacity="1" stroke-opacity="1"></path><path d="M462.496 256.632C462.496 256.632 457.153 267.068 458.323 279.089C459.821 294.495 468.258 298.35 468.258 298.35C468.258 298.35 473.572 289.75 473.799 276.77C474.144 256.95 462.496 256.632 462.496 256.632Z" fill="currentColor" stroke-width="1px" fill-opacity="1" stroke-opacity="1"></path><g clip-path="url(#clip1_7843_962)" stroke-width="1px" fill-opacity="1" stroke-opacity="1"><path d="M116.42 159.265C117.711 152.549 123.652 147.899 131.918 147.899C141.475 147.899 148.966 152.032 148.966 164.947V188.969H140.7L139.667 183.803C136.826 187.42 132.951 189.744 127.269 189.744C120.294 189.744 114.87 185.353 114.87 177.346C114.87 169.338 122.103 164.172 132.176 164.172H138.892V162.364C138.892 157.715 135.534 156.423 131.66 156.423C128.818 156.423 125.977 157.457 124.686 161.073L116.42 159.265ZM129.593 181.22C134.243 181.22 138.892 178.121 138.892 172.955V172.18H132.435C128.043 171.921 125.46 173.73 125.46 177.346C125.46 179.154 127.01 181.22 129.593 181.22Z" fill="currentColor" stroke-width="1px" fill-opacity="1" stroke-opacity="1"></path><path d="M311.179 159.265C312.47 152.549 318.411 147.899 326.677 147.899C336.234 147.899 343.725 152.032 343.725 164.947V188.969H335.459L334.426 183.803C331.585 187.42 327.71 189.744 322.027 189.744C315.053 189.744 309.629 185.353 309.629 177.346C309.629 169.338 316.861 164.172 326.935 164.172H333.651V162.364C333.651 157.715 330.293 156.423 326.419 156.423C323.577 156.423 320.736 157.457 319.444 161.073L311.179 159.265ZM324.352 181.22C329.002 181.22 333.651 178.121 333.651 172.955V172.18H326.935C322.544 172.18 319.961 173.73 319.961 177.346C320.219 179.154 321.769 181.22 324.352 181.22Z" fill="currentColor" stroke-width="1px" fill-opacity="1" stroke-opacity="1"></path><path d="M352.766 189.228V148.416H362.839V155.132C365.681 150.224 370.33 147.899 374.721 147.899C376.529 147.899 378.079 148.158 379.629 148.674L377.821 157.973C376.529 157.198 375.238 156.682 373.688 156.682C367.747 156.682 362.839 161.589 362.839 174.504V188.969L352.766 189.228Z" fill="currentColor" stroke-width="1px" fill-opacity="1" stroke-opacity="1"></path><path d="M401.068 147.9C405.201 147.9 409.075 149.966 410.883 152.291V132.144H420.957V189.228H410.883V185.095C409.592 187.162 405.976 190.003 401.068 190.003C388.928 190.003 382.729 181.479 382.729 169.081C382.729 156.682 388.928 147.9 401.068 147.9ZM402.618 181.221C407.784 181.221 411.917 176.83 411.917 168.822C411.917 160.815 407.784 156.424 402.618 156.424C397.452 156.424 393.319 160.815 393.319 168.822C393.319 176.83 397.452 181.221 402.618 181.221Z" fill="currentColor" stroke-width="1px" fill-opacity="1" stroke-opacity="1"></path><path d="M457.118 154.355L451.177 159.779C449.369 157.196 446.528 156.163 444.461 156.163C442.395 156.163 440.587 157.455 440.587 159.521C440.587 161.329 442.137 162.621 444.461 163.396C450.144 165.462 459.185 167.27 459.185 175.794C459.185 183.285 453.502 189.226 444.72 189.226C436.196 189.226 430.513 183.285 428.705 178.377L436.712 173.986C438.262 177.86 440.845 180.702 444.978 180.702C448.078 180.702 450.144 179.152 450.144 176.311C450.144 172.953 444.978 172.178 440.07 170.111C435.679 168.303 431.805 165.462 431.805 159.263C431.805 153.063 436.971 147.381 444.72 147.381C449.886 147.639 454.794 150.48 457.118 154.355Z" fill="currentColor" stroke-width="1px" fill-opacity="1" stroke-opacity="1"></path><path d="M248.929 148.419L241.696 176.574L234.722 148.419H225.423L218.708 176.574L213.025 160.301L212.25 162.109L209.15 172.699L214.316 189.231H223.099L230.073 162.884L237.047 189.231H246.088L259.003 148.419H248.929Z" fill="currentColor" stroke-width="1px" fill-opacity="1" stroke-opacity="1"></path><path d="M297.231 148.419L289.999 176.574L283.024 148.419H273.726L267.01 176.574L261.327 160.301L260.552 162.109L257.194 172.699L262.619 189.231H271.401L278.375 162.884L285.349 189.231H294.131L307.305 148.419H297.231Z" fill="currentColor" stroke-width="1px" fill-opacity="1" stroke-opacity="1"></path><path d="M210.7 148.419L197.785 188.972H189.003L182.029 162.884L175.055 189.231H166.272L153.357 148.677H163.431L170.664 176.574L177.638 148.677H186.937L193.911 176.574L201.143 148.677L210.7 148.419Z" fill="currentColor" stroke-width="1px" fill-opacity="1" stroke-opacity="1"></path><path d="M472.358 176.053C476.233 176.053 479.074 178.894 479.074 182.769C479.074 186.643 476.233 189.484 472.358 189.484C468.484 189.484 465.643 186.643 465.643 182.769C465.643 178.894 468.484 176.053 472.358 176.053Z" fill="currentColor" stroke-width="1px" fill-opacity="1" stroke-opacity="1"></path></g></g><defs><clipPath id="clip0_7843_962"><rect width="592.589" height="322" fill="currentColor"></rect></clipPath><clipPath id="clip1_7843_962"><rect width="364.205" height="57.6012" fill="currentColor" transform="translate(114.87 132.144)"></rect></clipPath></defs></svg>